<svg xmlns="http://www.w3.org/2000/svg" viewBox="0 0 128 128" width="128" height="128">
  <defs>
    <linearGradient id="ctBodyL" x1="0" y1="0" x2="0" y2="1">
      <stop offset="0%" stop-color="#6366f1"/>
      <stop offset="100%" stop-color="#4338ca"/>
    </linearGradient>
    <linearGradient id="ctBodyR" x1="0" y1="0" x2="0" y2="1">
      <stop offset="0%" stop-color="#4f46e5"/>
      <stop offset="100%" stop-color="#3730a3"/>
    </linearGradient>
    <linearGradient id="ctTop" x1="0" y1="0" x2="1" y2="0">
      <stop offset="0%" stop-color="#818cf8"/>
      <stop offset="60%" stop-color="#6366f1"/>
      <stop offset="100%" stop-color="#4f46e5"/>
    </linearGradient>
    <linearGradient id="ctRing" x1="0" y1="0" x2="0" y2="1">
      <stop offset="0%" stop-color="#a5b4fc"/>
      <stop offset="50%" stop-color="#6366f1"/>
    </linearGradient>
  </defs>

  <!-- Shadow/ground -->
  <ellipse cx="68" cy="108" rx="36" ry="8" fill="rgba(0,0,0,0.1)"/>

  <!-- Right face (darker) -->
  <path d="M64,28 L64,100 A40,14 0 0,0 104,100 L104,28 A40,14 0 0,1 64,28" fill="url(#ctBodyR)"/>

  <!-- Left face -->
  <path d="M24,28 L24,100 A40,14 0 0,0 64,100 L64,28 A40,14 0 0,1 24,28" fill="url(#ctBodyL)"/>

  <!-- Bottom ellipse -->
  <ellipse cx="64" cy="100" rx="40" ry="14" fill="#3730a3"/>

  <!-- Middle ring -->
  <ellipse cx="64" cy="64" rx="40" ry="14" fill="url(#ctRing)"/>

  <!-- Top ellipse -->
  <ellipse cx="64" cy="28" rx="40" ry="14" fill="url(#ctTop)"/>
  <ellipse cx="58" cy="25" rx="24" ry="7" fill="rgba(255,255,255,0.18)"/>
</svg>
